<svg width="60" height="87" viewBox="0 0 60 87" fill="none" xmlns="http://www.w3.org/2000/svg">
<g clip-path="url(#clip0_13_571)">
<path d="M30 60.5217C46.5685 60.5217 60 46.9735 60 30.2609C60 13.5483 46.5685 0 30 0C13.4315 0 0 13.5483 0 30.2609C0 46.9735 13.4315 60.5217 30 60.5217Z" fill="white"/>
<path fill-rule="evenodd" clip-rule="evenodd" d="M59.2278 37.1122C59.5454 35.7284 59.7688 34.3084 59.8909 32.8591C44.4909 31.8938 33.7762 36.5752 26.5769 42.9301C21.6403 47.2876 18.3303 52.4556 16.3013 57.1899C18.5761 58.3697 21.0198 59.2648 23.5861 59.8286C25.7378 55.6574 28.8316 51.3516 33.0659 47.6139C39.2249 42.1773 47.7599 37.976 59.2278 37.1122ZM58.7147 39.0511C47.9647 39.9931 40.0225 43.9866 34.3008 49.0372C30.4286 52.4551 27.5572 56.3718 25.5198 60.1865C26.9814 60.4073 28.4774 60.5217 30 60.5217C43.5378 60.5217 54.9811 51.4768 58.7147 39.0511ZM25.3421 41.5068C32.9341 34.8054 44.1362 29.9806 59.9919 30.9706C59.9973 30.7346 60 30.4981 60 30.2609C60 28.9668 59.9194 27.6917 59.7632 26.4403C42.5521 23.8522 30.3211 28.0634 21.995 34.3526C15.1614 39.5145 10.9177 46.1071 8.7195 51.5904C10.4904 53.3881 12.4836 54.9626 14.6541 56.2685C16.7911 51.3429 20.2381 46.0121 25.3421 41.5068ZM7.31869 50.0679C5.42589 47.8646 3.84341 45.3826 2.63975 42.6912C5.20452 37.3372 10.1434 30.7839 17.893 25.9085C27.0921 20.1213 40.3073 16.6633 58.3331 20.4656L58.3559 20.3555C58.8146 21.6916 59.1831 23.0702 59.4539 24.4839C42.0849 22.0082 29.5278 26.2998 20.8711 32.8388C14.074 37.973 9.71775 44.4652 7.31869 50.0679ZM16.9008 24.3038C26.3436 18.3631 39.6992 14.8629 57.6024 18.387C57.3876 17.8793 57.1593 17.3788 56.9181 16.8858C27.3073 5.80247 8.19613 18.1685 0.0585483 28.3548C0.019709 28.9851 0 29.6207 0 30.2609C0 33.8055 0.604184 37.2078 1.71434 40.3686C4.58397 35.0341 9.53619 28.9369 16.9008 24.3038ZM0.447606 25.024C2.90654 10.8073 15.2021 0 30 0C40.796 0 50.2601 5.75227 55.5442 14.3841C28.2032 4.95923 9.63838 15.0952 0.447606 25.024Z" fill="#BC002D"/>
<path d="M30 59.8913C46.2234 59.8913 59.375 46.6253 59.375 30.2609C59.375 13.8964 46.2234 0.630432 30 0.630432C13.7766 0.630432 0.625 13.8964 0.625 30.2609C0.625 46.6253 13.7766 59.8913 30 59.8913Z" stroke="#BC002D" stroke-width="2"/>
<path d="M30 58.3152C45.3604 58.3152 57.8125 45.7549 57.8125 30.2609C57.8125 14.7669 45.3604 2.20654 30 2.20654C14.6396 2.20654 2.1875 14.7669 2.1875 30.2609C2.1875 45.7549 14.6396 58.3152 30 58.3152Z" stroke="white" stroke-width="3"/>
<path d="M21.4043 16.2769V29.8492C22.8737 33.8842 28.7512 34.6178 33.894 34.251C38.0084 33.9576 39.2819 31.1942 39.4043 29.8492V17.7442C39.4043 15.1765 34.9961 12.6087 29.4859 12.6087C25.0777 12.6087 22.2614 15.0542 21.4043 16.2769Z" fill="#0F172A" stroke="white"/>
<path d="M29.258 13.6961C26.5402 13.4633 23.7702 15.7332 22.7248 16.8972C20.6342 21.8444 31.61 21.2624 34.4846 21.2624C37.3592 21.2624 38.9272 18.0613 38.1432 16.8972C37.3592 15.7332 32.6553 13.9871 29.258 13.6961Z" fill="white"/>
<path d="M26.2393 16.1935C24.8916 16.8887 26.127 18.2212 26.9131 18.8006C27.5869 19.4055 31.6298 19.6695 32.9774 19.6695C34.3251 19.6695 33.9882 18.8006 34.9989 17.6418C35.8075 16.7149 33.539 15.7107 32.3036 15.3244C30.8437 15.3244 27.5869 15.4982 26.2393 16.1935Z" fill="#BC002D"/>
<path d="M29.875 29.8555V43.4278C31.3444 47.4628 37.222 48.1964 42.3648 47.8296C46.4791 47.5361 47.7526 44.7728 47.875 43.4278V31.3228C47.875 28.755 43.4669 26.1873 37.9567 26.1873C33.5485 26.1873 30.7322 28.6328 29.875 29.8555Z" fill="#0F172A" stroke="white"/>
<path d="M37.7282 27.2746C35.0104 27.0418 32.2404 29.3117 31.1951 30.4757C29.1044 35.4229 40.0802 34.8409 42.9547 34.8409C45.8294 34.8409 47.3973 31.6398 46.6134 30.4757C45.8294 29.3117 41.1255 27.5656 37.7282 27.2746Z" fill="white"/>
<path d="M34.7099 29.7721C33.3623 30.4673 34.5977 31.7998 35.3838 32.3791C36.0576 32.9841 40.1005 33.2482 41.4481 33.2482C42.7958 33.2482 42.4589 32.3791 43.4696 31.2204C44.2782 30.2934 42.0096 29.2892 40.7743 28.903C39.3144 28.903 36.0576 29.0768 34.7099 29.7721Z" fill="#BC002D"/>
<path d="M11.875 27.1398V40.7121C13.3444 44.7472 19.2219 45.4808 24.3648 45.1139C28.4791 44.8205 29.7526 42.0571 29.875 40.7121V28.6071C29.875 26.0394 25.4668 23.4716 19.9566 23.4716C15.5485 23.4716 12.7321 25.9171 11.875 27.1398Z" fill="#0F172A" stroke="white"/>
<path d="M19.7282 24.559C17.0104 24.3262 14.2404 26.596 13.1951 27.7601C11.1044 32.7072 22.0802 32.1252 24.9548 32.1252C27.8294 32.1252 29.3974 28.9241 28.6134 27.7601C27.8294 26.596 23.1255 24.85 19.7282 24.559Z" fill="white"/>
<path d="M16.71 27.0564C15.3623 27.7516 16.5976 29.0841 17.3838 29.6635C18.0576 30.2684 22.1005 30.5325 23.4482 30.5325C24.7958 30.5325 24.4588 29.6635 25.4696 28.5048C26.2781 27.5778 24.0096 26.5736 22.7743 26.1874C21.3144 26.1874 18.0576 26.3612 16.71 27.0564Z" fill="#BC002D"/>
<path d="M10.8399 80.1888C9.95323 80.1888 9.15991 80.0419 8.45991 79.7475C7.7716 79.4417 7.22323 79.0294 6.81491 78.5118C6.41823 77.9823 6.19657 77.3878 6.1499 76.729H9.47491C9.5216 77.0467 9.66741 77.2938 9.91241 77.4704C10.1574 77.6469 10.4607 77.7351 10.8224 77.7351C11.1024 77.7351 11.3241 77.6765 11.4874 77.5586C11.6507 77.4407 11.7324 77.2882 11.7324 77.0997C11.7324 76.8525 11.5982 76.6703 11.3299 76.5525C11.0616 76.4346 10.6182 76.3053 9.99991 76.1641C9.29991 76.0229 8.7166 75.864 8.24991 75.6875C7.78323 75.511 7.37491 75.2229 7.02491 74.8225C6.6866 74.4222 6.51742 73.8813 6.51742 73.1985C6.51742 72.6103 6.67491 72.0808 6.98991 71.6098C7.30491 71.1276 7.76573 70.7449 8.37241 70.4624C8.99073 70.18 9.7316 70.0388 10.5949 70.0388C11.8782 70.0388 12.8874 70.3565 13.6224 70.992C14.3574 71.6275 14.7832 72.4628 14.8999 73.4986H11.8024C11.7441 73.1809 11.6041 72.9394 11.3824 72.7749C11.1724 72.5984 10.8866 72.5101 10.5249 72.5101C10.2449 72.5101 10.0291 72.5631 9.87741 72.669C9.73741 72.7749 9.66742 72.9218 9.66742 73.1103C9.66742 73.3454 9.8016 73.5283 10.0699 73.6575C10.3382 73.7754 10.7699 73.899 11.3649 74.0282C12.0766 74.1814 12.6657 74.3516 13.1324 74.5401C13.6107 74.7286 14.0249 75.0344 14.3749 75.458C14.7366 75.8697 14.9174 76.4346 14.9174 77.1526C14.9174 77.7295 14.7482 78.2471 14.4099 78.706C14.0832 79.165 13.6107 79.53 12.9924 79.8005C12.3857 80.0596 11.6682 80.1888 10.8399 80.1888ZM26.6487 70.1624V80.0652H23.2012V78.6531C22.9095 79.1 22.507 79.4651 21.9937 79.7475C21.4804 80.018 20.8912 80.1535 20.2262 80.1535C19.0829 80.1535 18.1787 79.7771 17.5137 79.0238C16.8604 78.259 16.5337 77.2232 16.5337 75.917V70.1624H19.9462V75.4757C19.9462 76.0405 20.092 76.4875 20.3837 76.8172C20.687 77.135 21.0837 77.2938 21.5737 77.2938C22.0754 77.2938 22.472 77.135 22.7637 76.8172C23.0554 76.4875 23.2012 76.0405 23.2012 75.4757V70.1624H26.6487ZM32.7833 80.1888C31.8966 80.1888 31.1033 80.0419 30.4033 79.7475C29.7149 79.4417 29.1666 79.0294 28.7583 78.5118C28.3616 77.9823 28.1399 77.3878 28.0933 76.729H31.4183C31.4649 77.0467 31.6108 77.2938 31.8558 77.4704C32.1008 77.6469 32.4041 77.7351 32.7658 77.7351C33.0458 77.7351 33.2674 77.6765 33.4308 77.5586C33.5941 77.4407 33.6758 77.2882 33.6758 77.0997C33.6758 76.8525 33.5416 76.6703 33.2733 76.5525C33.0049 76.4346 32.5616 76.3053 31.9433 76.1641C31.2433 76.0229 30.6599 75.864 30.1933 75.6875C29.7266 75.511 29.3183 75.2229 28.9683 74.8225C28.6299 74.4222 28.4608 73.8813 28.4608 73.1985C28.4608 72.6103 28.6183 72.0808 28.9333 71.6098C29.2483 71.1276 29.7091 70.7449 30.3158 70.4624C30.9341 70.18 31.6749 70.0388 32.5383 70.0388C33.8216 70.0388 34.8308 70.3565 35.5658 70.992C36.3008 71.6275 36.7266 72.4628 36.8433 73.4986H33.7458C33.6874 73.1809 33.5474 72.9394 33.3258 72.7749C33.1158 72.5984 32.8299 72.5101 32.4683 72.5101C32.1883 72.5101 31.9724 72.5631 31.8208 72.669C31.6808 72.7749 31.6108 72.9218 31.6108 73.1103C31.6108 73.3454 31.7449 73.5283 32.0133 73.6575C32.2816 73.7754 32.7133 73.899 33.3083 74.0282C34.0199 74.1814 34.6091 74.3516 35.0758 74.5401C35.5541 74.7286 35.9683 75.0344 36.3183 75.458C36.6799 75.8697 36.8608 76.4346 36.8608 77.1526C36.8608 77.7295 36.6916 78.2471 36.3533 78.706C36.0266 79.165 35.5541 79.53 34.9358 79.8005C34.3291 80.0596 33.6116 80.1888 32.7833 80.1888ZM45.0045 70.0741C46.1245 70.0741 47.0112 70.4568 47.6645 71.2215C48.3295 71.9749 48.662 72.9987 48.662 74.293V80.0652H45.232V74.7519C45.232 74.1871 45.0862 73.7458 44.7945 73.428C44.5029 73.0983 44.112 72.9338 43.622 72.9338C43.1087 72.9338 42.7062 73.0983 42.4145 73.428C42.1229 73.7458 41.977 74.1871 41.977 74.7519V80.0652H38.547V67.0026H41.977V71.5745C42.2804 71.1276 42.6887 70.7682 43.202 70.4978C43.727 70.2153 44.3279 70.0741 45.0045 70.0741ZM52.2766 69.2444C51.67 69.2444 51.18 69.0799 50.8066 68.7502C50.445 68.4091 50.2641 67.9855 50.2641 67.4792C50.2641 66.9616 50.445 66.5317 50.8066 66.1906C51.18 65.8496 51.67 65.6787 52.2766 65.6787C52.8716 65.6787 53.35 65.8496 53.7116 66.1906C54.085 66.5317 54.2716 66.9616 54.2716 67.4792C54.2716 67.9855 54.085 68.4091 53.7116 68.7502C53.35 69.0799 52.8716 69.2444 52.2766 69.2444ZM53.9741 70.1624V80.0652H50.5441V70.1624H53.9741Z" fill="#0F172A"/>
</g>
<defs>
<clipPath id="clip0_13_571">
<rect width="60" height="87" fill="white"/>
</clipPath>
</defs>
</svg>
