<svg width="36" height="36" viewBox="0 0 36 36" fill="none" xmlns="http://www.w3.org/2000/svg">
<g clip-path="url(#clip0_25_684)">
<path d="M18 3C20.3869 3 22.6761 3.94821 24.364 5.63604C26.0518 7.32387 27 9.61305 27 12V13.5H33V16.5H31.2495L30.114 30.1245C30.0828 30.4993 29.9119 30.8488 29.6352 31.1035C29.3585 31.3583 28.9961 31.4998 28.62 31.5H7.38C7.00387 31.4998 6.64154 31.3583 6.36483 31.1035C6.08812 30.8488 5.91722 30.4993 5.886 30.1245L4.749 16.5H3V13.5H9V12C9 9.61305 9.94821 7.32387 11.636 5.63604C13.3239 3.94821 15.6131 3 18 3V3ZM28.239 16.5H7.7595L8.76 28.5H27.2385L28.239 16.5ZM19.5 19.5V25.5H16.5V19.5H19.5ZM13.5 19.5V25.5H10.5V19.5H13.5ZM25.5 19.5V25.5H22.5V19.5H25.5ZM18 6C16.4606 6 14.9802 6.59165 13.8648 7.65259C12.7494 8.71352 12.0845 10.1626 12.0075 11.7L12 12V13.5H24V12C24 10.4606 23.4083 8.98016 22.3474 7.86478C21.2865 6.74941 19.8374 6.08447 18.3 6.0075L18 6Z" fill="#fff"/>
</g>
<defs>
<clipPath id="clip0_25_684">
<rect width="36" height="36" fill="white"/>
</clipPath>
</defs>
</svg>
