<svg xmlns="http://www.w3.org/2000/svg" width="60" height="87" fill="none"><g clip-path="url(#a)"><path fill="#fff" d="M30 60.522c16.569 0 30-13.548 30-30.261S46.569 0 30 0C13.432 0 0 13.548 0 30.26c0 16.714 13.432 30.262 30 30.262"/><path fill="#BC002D" fill-rule="evenodd" d="M59.228 37.112q.477-2.078.663-4.253c-15.4-.965-26.115 3.716-33.314 10.071-4.937 4.358-8.247 9.526-10.276 14.26a29.6 29.6 0 0 0 7.285 2.639c2.152-4.172 5.246-8.477 9.48-12.215 6.159-5.437 14.694-9.638 26.162-10.502m-.513 1.94c-10.75.941-18.693 4.935-24.414 9.985-3.872 3.418-6.744 7.335-8.781 11.15 1.461.22 2.957.335 4.48.335 13.538 0 24.981-9.045 28.715-21.47m-33.373 2.455c7.592-6.702 18.794-11.526 34.65-10.536a31 31 0 0 0-.229-4.53c-17.21-2.589-29.442 1.622-37.768 7.912-6.834 5.161-11.077 11.754-13.276 17.237a30.2 30.2 0 0 0 5.935 4.679c2.137-4.926 5.584-10.257 10.688-14.762M7.32 50.067a30.3 30.3 0 0 1-4.68-7.376c2.566-5.354 7.504-11.907 15.254-16.783 9.2-5.787 22.414-9.245 40.44-5.442l.023-.11a30 30 0 0 1 1.098 4.128c-17.37-2.476-29.926 1.816-38.583 8.355C14.074 37.973 9.718 44.465 7.32 50.068m9.58-25.763c9.443-5.94 22.798-9.441 40.701-5.917a30 30 0 0 0-.684-1.501C27.308 5.802 8.196 18.169.058 28.355A31 31 0 0 0 0 30.26c0 3.545.604 6.947 1.714 10.108 2.87-5.335 7.822-11.432 15.187-16.065m-16.453.72C2.907 10.807 15.202 0 30 0c10.796 0 20.26 5.752 25.544 14.384-27.34-9.425-45.906.711-55.096 10.64" clip-rule="evenodd"/><path stroke="#BC002D" stroke-width="2" d="M30 59.891c16.223 0 29.375-13.266 29.375-29.63C59.375 13.896 46.223.63 30 .63S.625 13.895.625 30.26 13.777 59.89 30 59.89Z"/><path stroke="#fff" stroke-width="3" d="M30 58.315c15.36 0 27.813-12.56 27.813-28.054S45.36 2.207 30 2.207 2.188 14.767 2.188 30.26 14.64 58.315 30 58.315Z"/><path fill="#0F172A" stroke="#fff" d="M21.404 16.277v13.572c1.47 4.035 7.347 4.769 12.49 4.402 4.114-.293 5.388-3.057 5.51-4.402V17.744c0-2.567-4.408-5.135-9.918-5.135-4.408 0-7.225 2.445-8.082 3.668Z"/><path fill="#fff" d="M29.258 13.696c-2.718-.233-5.488 2.037-6.533 3.201-2.09 4.947 8.885 4.365 11.76 4.365s4.442-3.2 3.658-4.365c-.784-1.164-5.488-2.91-8.885-3.2"/><path fill="#BC002D" d="M26.24 16.194c-1.348.695-.113 2.027.673 2.607.674.605 4.717.869 6.064.869s1.011-.87 2.022-2.028c.808-.927-1.46-1.931-2.695-2.318-1.46 0-4.717.174-6.065.87"/><path fill="#0F172A" stroke="#fff" d="M29.875 29.856v13.572c1.47 4.035 7.347 4.768 12.49 4.402 4.114-.294 5.388-3.057 5.51-4.402V31.323c0-2.568-4.408-5.136-9.918-5.136-4.409 0-7.225 2.446-8.082 3.668Z"/><path fill="#fff" d="M37.728 27.275c-2.718-.233-5.488 2.037-6.533 3.2-2.09 4.948 8.885 4.366 11.76 4.366s4.442-3.201 3.658-4.365-5.487-2.91-8.885-3.201"/><path fill="#BC002D" d="M34.71 29.772c-1.348.695-.112 2.028.674 2.607.674.605 4.716.87 6.064.87s1.01-.87 2.022-2.029c.808-.927-1.46-1.93-2.696-2.317-1.46 0-4.716.174-6.064.87"/><path fill="#0F172A" stroke="#fff" d="M11.875 27.14v13.572c1.47 4.035 7.347 4.769 12.49 4.402 4.114-.293 5.388-3.057 5.51-4.402V28.607c0-2.568-4.408-5.135-9.918-5.135-4.408 0-7.225 2.445-8.082 3.668Z"/><path fill="#fff" d="M19.728 24.559c-2.718-.233-5.488 2.037-6.533 3.201-2.09 4.947 8.885 4.365 11.76 4.365s4.442-3.2 3.658-4.365c-.784-1.164-5.488-2.91-8.885-3.201"/><path fill="#BC002D" d="M16.71 27.056c-1.348.696-.112 2.028.674 2.607.674.605 4.717.87 6.064.87s1.01-.87 2.022-2.028c.808-.927-1.46-1.931-2.696-2.318-1.46 0-4.716.174-6.064.87"/><path fill="#fff" d="M10.84 80.189q-1.33 0-2.38-.441-1.032-.46-1.645-1.236a3.3 3.3 0 0 1-.665-1.783h3.325q.07.477.437.741.368.265.91.265.42 0 .665-.176a.54.54 0 0 0 .245-.46q0-.37-.402-.547-.403-.176-1.33-.388-1.05-.212-1.75-.477a3.04 3.04 0 0 1-1.225-.864q-.508-.6-.508-1.624 0-.883.473-1.59.473-.722 1.382-1.147.928-.423 2.223-.423 1.925 0 3.027.953 1.103.952 1.278 2.507h-3.098q-.087-.478-.42-.724-.314-.265-.857-.265-.42 0-.648.159a.52.52 0 0 0-.21.441q0 .353.403.547.402.177 1.295.371 1.067.23 1.767.512.718.283 1.243.918.543.618.542 1.695 0 .864-.507 1.553-.49.689-1.418 1.094-.91.39-2.152.389m15.809-10.027v9.903H23.2v-1.412a3.3 3.3 0 0 1-1.207 1.094q-.77.406-1.768.406-1.715 0-2.712-1.13-.98-1.146-.98-3.106v-5.755h3.412v5.314q0 .846.438 1.341.455.477 1.19.477.752 0 1.19-.477.437-.494.437-1.341v-5.314zm6.134 10.027q-1.33 0-2.38-.441-1.032-.46-1.645-1.236a3.3 3.3 0 0 1-.665-1.783h3.325q.07.477.438.741.367.265.91.265.42 0 .665-.176a.54.54 0 0 0 .245-.46q0-.37-.403-.547-.402-.176-1.33-.388-1.05-.212-1.75-.477a3.04 3.04 0 0 1-1.225-.864q-.507-.6-.507-1.624 0-.883.472-1.59.473-.722 1.383-1.147.927-.423 2.222-.423 1.926 0 3.028.953 1.102.952 1.277 2.507h-3.097q-.088-.478-.42-.724-.315-.265-.858-.265-.42 0-.647.159a.52.52 0 0 0-.21.441q0 .353.402.547.403.177 1.295.371 1.068.23 1.768.512.717.283 1.242.918.543.618.543 1.695 0 .864-.508 1.553-.49.689-1.417 1.094-.91.39-2.153.389m12.221-10.115q1.68 0 2.66 1.148.998 1.13.998 3.071v5.772h-3.43v-5.313q0-.847-.437-1.324-.438-.495-1.173-.494-.77 0-1.208.494-.437.478-.437 1.324v5.313h-3.43V67.003h3.43v4.572a3.3 3.3 0 0 1 1.225-1.077q.787-.424 1.803-.424m7.273-.83q-.91 0-1.47-.494a1.68 1.68 0 0 1-.543-1.27q0-.777.543-1.29.56-.51 1.47-.511.892 0 1.435.512.56.51.56 1.288 0 .76-.56 1.271-.543.495-1.435.494m1.697.918v9.903h-3.43v-9.903z"/></g><defs><clipPath id="a"><path fill="#fff" d="M0 0h60v87H0z"/></clipPath></defs></svg>